<svg xmlns="http://www.w3.org/2000/svg" xmlns:xlink="http://www.w3.org/1999/xlink" width="500" zoomAndPan="magnify" viewBox="0 0 375 374.999991" height="500" preserveAspectRatio="xMidYMid meet" version="1.0"><defs><g/><clipPath id="79d7ec93fb"><path d="M 190.382812 207.578125 L 200.554688 207.578125 L 200.554688 217.753906 L 190.382812 217.753906 Z M 190.382812 207.578125 " clip-rule="nonzero"/></clipPath><clipPath id="140aecbe24"><path d="M 195.46875 207.578125 C 192.660156 207.578125 190.382812 209.855469 190.382812 212.664062 C 190.382812 215.476562 192.660156 217.753906 195.46875 217.753906 C 198.277344 217.753906 200.554688 215.476562 200.554688 212.664062 C 200.554688 209.855469 198.277344 207.578125 195.46875 207.578125 Z M 195.46875 207.578125 " clip-rule="nonzero"/></clipPath></defs><g fill="#545454" fill-opacity="1"><g transform="translate(109.022599, 200.782576)"><g><path d="M 37.34375 -71.90625 L 76.046875 -71.90625 L 76.046875 -55.671875 L 41.40625 -55.671875 C 37.738281 -55.671875 34.429688 -54.738281 31.484375 -52.875 C 28.535156 -51.007812 26.21875 -48.585938 24.53125 -45.609375 C 22.851562 -42.628906 22.015625 -39.425781 22.015625 -36 C 22.015625 -31.96875 22.945312 -28.476562 24.8125 -25.53125 C 26.675781 -22.582031 29.171875 -20.296875 32.296875 -18.671875 C 35.421875 -17.046875 38.820312 -16.234375 42.5 -16.234375 L 56.390625 -16.234375 L 56.390625 -50.96875 L 76.046875 -50.96875 L 76.046875 0 L 37.4375 0 C 32.507812 0 27.847656 -0.914062 23.453125 -2.75 C 19.066406 -4.582031 15.21875 -7.140625 11.90625 -10.421875 C 8.601562 -13.703125 6.003906 -17.519531 4.109375 -21.875 C 2.210938 -26.238281 1.265625 -30.945312 1.265625 -36 C 1.265625 -41.164062 2.132812 -45.929688 3.875 -50.296875 C 5.625 -54.660156 8.109375 -58.460938 11.328125 -61.703125 C 14.546875 -64.953125 18.363281 -67.460938 22.78125 -69.234375 C 27.195312 -71.015625 32.050781 -71.90625 37.34375 -71.90625 Z M 37.34375 -71.90625 "/></g></g></g><g fill="#545454" fill-opacity="1"><g transform="translate(189.668134, 200.782576)"><g><path d="M 22.375 -55.671875 L 22.375 0 L 2.703125 0 L 2.703125 -71.90625 L 48.265625 -71.90625 C 52.410156 -71.90625 56.210938 -70.925781 59.671875 -68.96875 C 63.140625 -67.019531 65.894531 -64.375 67.9375 -61.03125 C 69.976562 -57.695312 71 -53.984375 71 -49.890625 C 71 -46.460938 70.1875 -43.226562 68.5625 -40.1875 C 66.9375 -37.15625 64.171875 -34.613281 60.265625 -32.5625 C 63.628906 -31.476562 66.378906 -29.78125 68.515625 -27.46875 C 70.648438 -25.15625 72.226562 -22.554688 73.25 -19.671875 C 74.28125 -16.785156 74.796875 -13.925781 74.796875 -11.09375 C 74.796875 -7.550781 73.953125 -4.140625 72.265625 -0.859375 C 70.578125 2.421875 68.289062 5.335938 65.40625 7.890625 C 62.519531 10.453125 59.316406 12.484375 55.796875 13.984375 C 52.273438 15.484375 48.648438 16.234375 44.921875 16.234375 L 22.375 16.234375 L 22.375 0 L 41.859375 0 C 45.222656 0 48.09375 -0.972656 50.46875 -2.921875 C 52.851562 -4.878906 54.046875 -7.695312 54.046875 -11.375 C 54.046875 -13.65625 53.503906 -15.679688 52.421875 -17.453125 C 51.335938 -19.234375 49.878906 -20.632812 48.046875 -21.65625 C 46.210938 -22.675781 44.210938 -23.1875 42.046875 -23.1875 L 26.703125 -23.1875 L 26.703125 -39.421875 L 42.125 -39.421875 C 44.71875 -39.421875 46.703125 -40.171875 48.078125 -41.671875 C 49.460938 -43.179688 50.15625 -45.171875 50.15625 -47.640625 C 50.15625 -49.859375 49.582031 -51.75 48.4375 -53.3125 C 47.300781 -54.882812 45.226562 -55.671875 42.21875 -55.671875 Z M 22.375 -55.671875 "/></g></g></g><g clip-path="url(#79d7ec93fb)"><g clip-path="url(#140aecbe24)"><path fill="#0097b2" d="M 190.382812 207.578125 L 200.554688 207.578125 L 200.554688 217.753906 L 190.382812 217.753906 Z M 190.382812 207.578125 " fill-opacity="1" fill-rule="nonzero"/></g></g><g fill="#545454" fill-opacity="1"><g transform="translate(118.652749, 241.471054)"><g><path d="M 6.1875 0.078125 C 5.40625 0.078125 4.675781 -0.0859375 4 -0.421875 C 3.332031 -0.753906 2.75 -1.207031 2.25 -1.78125 C 1.75 -2.351562 1.363281 -2.992188 1.09375 -3.703125 C 0.820312 -4.410156 0.6875 -5.140625 0.6875 -5.890625 C 0.6875 -6.679688 0.820312 -7.429688 1.09375 -8.140625 C 1.363281 -8.859375 1.742188 -9.492188 2.234375 -10.046875 C 2.722656 -10.597656 3.296875 -11.03125 3.953125 -11.34375 C 4.617188 -11.664062 5.34375 -11.828125 6.125 -11.828125 C 7.28125 -11.828125 8.222656 -11.585938 8.953125 -11.109375 C 9.679688 -10.640625 10.234375 -10.023438 10.609375 -9.265625 L 9.71875 -8.671875 C 9.34375 -9.398438 8.835938 -9.929688 8.203125 -10.265625 C 7.578125 -10.609375 6.878906 -10.78125 6.109375 -10.78125 C 5.453125 -10.78125 4.863281 -10.644531 4.34375 -10.375 C 3.820312 -10.101562 3.375 -9.734375 3 -9.265625 C 2.625 -8.804688 2.335938 -8.28125 2.140625 -7.6875 C 1.953125 -7.101562 1.859375 -6.5 1.859375 -5.875 C 1.859375 -5.207031 1.96875 -4.578125 2.1875 -3.984375 C 2.40625 -3.398438 2.71875 -2.878906 3.125 -2.421875 C 3.53125 -1.960938 4 -1.601562 4.53125 -1.34375 C 5.070312 -1.082031 5.648438 -0.953125 6.265625 -0.953125 C 6.984375 -0.953125 7.660156 -1.128906 8.296875 -1.484375 C 8.941406 -1.847656 9.554688 -2.40625 10.140625 -3.15625 L 10.140625 -1.9375 C 9.023438 -0.59375 7.707031 0.078125 6.1875 0.078125 Z M 9.96875 -4.875 L 7.34375 -4.875 L 7.34375 -5.78125 L 10.9375 -5.78125 L 10.9375 0 L 9.96875 0 Z M 9.96875 -4.875 "/></g></g></g><g fill="#545454" fill-opacity="1"><g transform="translate(132.761314, 241.471054)"><g><path d="M 5.109375 -11.75 L 6.09375 -11.75 L 10.96875 0 L 9.75 0 L 8.21875 -3.671875 L 2.953125 -3.671875 L 1.4375 0 L 0.203125 0 Z M 7.953125 -4.578125 L 5.59375 -10.390625 L 3.1875 -4.578125 Z M 7.953125 -4.578125 "/></g></g></g><g fill="#545454" fill-opacity="1"><g transform="translate(146.208388, 241.471054)"><g><path d="M 9.359375 -1.03125 L 9.359375 0 L 1.46875 0 L 1.46875 -11.75 L 9.21875 -11.75 L 9.21875 -10.71875 L 2.625 -10.71875 L 2.625 -6.484375 L 8.375 -6.484375 L 8.375 -5.515625 L 2.625 -5.515625 L 2.625 -1.03125 Z M 3.859375 -13.5625 L 3.859375 -15.125 L 4.8125 -15.125 L 4.8125 -13.5625 Z M 6.3125 -13.5625 L 6.3125 -15.125 L 7.28125 -15.125 L 7.28125 -13.5625 Z M 6.3125 -13.5625 "/></g></g></g><g fill="#545454" fill-opacity="1"><g transform="translate(158.547453, 241.471054)"><g><path d="M 1.46875 0 L 1.46875 -11.75 L 2.625 -11.75 L 2.625 -1.03125 L 9.421875 -1.03125 L 9.421875 0 Z M 1.46875 0 "/></g></g></g><g fill="#545454" fill-opacity="1"><g transform="translate(170.456542, 241.471054)"><g><path d="M 1.46875 0 L 1.46875 -11.75 L 2.625 -11.75 L 2.625 -1.03125 L 9.421875 -1.03125 L 9.421875 0 Z M 1.46875 0 "/></g></g></g><g fill="#545454" fill-opacity="1"><g transform="translate(182.365632, 241.471054)"><g><path d="M 9.359375 -1.03125 L 9.359375 0 L 1.46875 0 L 1.46875 -11.75 L 9.21875 -11.75 L 9.21875 -10.71875 L 2.625 -10.71875 L 2.625 -6.484375 L 8.375 -6.484375 L 8.375 -5.515625 L 2.625 -5.515625 L 2.625 -1.03125 Z M 9.359375 -1.03125 "/></g></g></g><g fill="#545454" fill-opacity="1"><g transform="translate(194.704697, 241.471054)"><g/></g></g><g fill="#545454" fill-opacity="1"><g transform="translate(201.189512, 241.471054)"><g><path d="M 10.3125 -3.03125 C 10.3125 -2.445312 10.160156 -1.925781 9.859375 -1.46875 C 9.566406 -1.007812 9.164062 -0.648438 8.65625 -0.390625 C 8.15625 -0.128906 7.609375 0 7.015625 0 L 1.46875 0 L 1.46875 -11.75 L 7.125 -11.75 C 7.675781 -11.75 8.15625 -11.601562 8.5625 -11.3125 C 8.96875 -11.019531 9.273438 -10.644531 9.484375 -10.1875 C 9.703125 -9.726562 9.8125 -9.25 9.8125 -8.75 C 9.8125 -8.164062 9.660156 -7.625 9.359375 -7.125 C 9.066406 -6.632812 8.65625 -6.265625 8.125 -6.015625 C 8.800781 -5.816406 9.332031 -5.445312 9.71875 -4.90625 C 10.113281 -4.375 10.3125 -3.75 10.3125 -3.03125 Z M 9.15625 -3.234375 C 9.15625 -3.628906 9.066406 -3.992188 8.890625 -4.328125 C 8.710938 -4.660156 8.46875 -4.929688 8.15625 -5.140625 C 7.851562 -5.347656 7.507812 -5.453125 7.125 -5.453125 L 2.625 -5.453125 L 2.625 -1.015625 L 7.015625 -1.015625 C 7.410156 -1.015625 7.769531 -1.117188 8.09375 -1.328125 C 8.414062 -1.535156 8.671875 -1.804688 8.859375 -2.140625 C 9.054688 -2.472656 9.15625 -2.835938 9.15625 -3.234375 Z M 2.625 -10.734375 L 2.625 -6.40625 L 6.671875 -6.40625 C 7.054688 -6.40625 7.394531 -6.503906 7.6875 -6.703125 C 7.988281 -6.910156 8.226562 -7.179688 8.40625 -7.515625 C 8.582031 -7.847656 8.671875 -8.203125 8.671875 -8.578125 C 8.671875 -8.972656 8.585938 -9.332031 8.421875 -9.65625 C 8.253906 -9.976562 8.023438 -10.238281 7.734375 -10.4375 C 7.453125 -10.632812 7.128906 -10.734375 6.765625 -10.734375 Z M 2.625 -10.734375 "/></g></g></g><g fill="#545454" fill-opacity="1"><g transform="translate(214.471212, 241.471054)"><g><path d="M 1.46875 0 L 1.46875 -11.75 L 6.4375 -11.75 C 6.945312 -11.75 7.410156 -11.644531 7.828125 -11.4375 C 8.242188 -11.226562 8.609375 -10.941406 8.921875 -10.578125 C 9.242188 -10.222656 9.488281 -9.828125 9.65625 -9.390625 C 9.820312 -8.953125 9.90625 -8.507812 9.90625 -8.0625 C 9.90625 -7.5 9.796875 -6.96875 9.578125 -6.46875 C 9.367188 -5.96875 9.066406 -5.546875 8.671875 -5.203125 C 8.285156 -4.867188 7.828125 -4.644531 7.296875 -4.53125 L 10.171875 0 L 8.875 0 L 6.109375 -4.328125 L 2.625 -4.328125 L 2.625 0 Z M 2.625 -5.359375 L 6.46875 -5.359375 C 6.9375 -5.359375 7.335938 -5.484375 7.671875 -5.734375 C 8.015625 -5.992188 8.28125 -6.328125 8.46875 -6.734375 C 8.65625 -7.148438 8.75 -7.59375 8.75 -8.0625 C 8.75 -8.53125 8.640625 -8.96875 8.421875 -9.375 C 8.210938 -9.78125 7.925781 -10.101562 7.5625 -10.34375 C 7.207031 -10.59375 6.8125 -10.71875 6.375 -10.71875 L 2.625 -10.71875 Z M 2.625 -5.359375 "/></g></g></g><g fill="#545454" fill-opacity="1"><g transform="translate(227.537926, 241.471054)"><g><path d="M 1.46875 0 L 1.46875 -11.75 L 2.625 -11.75 L 2.625 0 Z M 1.46875 0 "/></g></g></g><g fill="#545454" fill-opacity="1"><g transform="translate(233.906982, 241.471054)"><g><path d="M 9.359375 -1.03125 L 9.359375 0 L 1.46875 0 L 1.46875 -11.75 L 9.21875 -11.75 L 9.21875 -10.71875 L 2.625 -10.71875 L 2.625 -6.484375 L 8.375 -6.484375 L 8.375 -5.515625 L 2.625 -5.515625 L 2.625 -1.03125 Z M 9.359375 -1.03125 "/></g></g></g><g fill="#545454" fill-opacity="1"><g transform="translate(246.246047, 241.471054)"><g><path d="M 9.8125 -10.71875 L 5.625 -10.71875 L 5.625 0 L 4.46875 0 L 4.46875 -10.71875 L 0.28125 -10.71875 L 0.28125 -11.75 L 9.8125 -11.75 Z M 9.8125 -10.71875 "/></g></g></g><g fill="#545454" fill-opacity="1"><g transform="translate(156.95172, 253.3795)"><g><path d="M 0.796875 0 L 0.796875 -6.40625 L 2.96875 -6.40625 C 3.65625 -6.40625 4.222656 -6.257812 4.671875 -5.96875 C 5.128906 -5.6875 5.472656 -5.300781 5.703125 -4.8125 C 5.929688 -4.332031 6.046875 -3.796875 6.046875 -3.203125 C 6.046875 -2.554688 5.921875 -1.992188 5.671875 -1.515625 C 5.421875 -1.035156 5.0625 -0.660156 4.59375 -0.390625 C 4.132812 -0.128906 3.59375 0 2.96875 0 Z M 5.40625 -3.203125 C 5.40625 -3.710938 5.3125 -4.164062 5.125 -4.5625 C 4.9375 -4.96875 4.660156 -5.28125 4.296875 -5.5 C 3.941406 -5.726562 3.5 -5.84375 2.96875 -5.84375 L 1.4375 -5.84375 L 1.4375 -0.5625 L 2.96875 -0.5625 C 3.5 -0.5625 3.941406 -0.675781 4.296875 -0.90625 C 4.660156 -1.144531 4.9375 -1.460938 5.125 -1.859375 C 5.3125 -2.265625 5.40625 -2.710938 5.40625 -3.203125 Z M 5.40625 -3.203125 "/></g></g></g><g fill="#545454" fill-opacity="1"><g transform="translate(163.398067, 253.3795)"><g><path d="M 2.703125 0.09375 C 2.367188 0.09375 2.054688 0.03125 1.765625 -0.09375 C 1.472656 -0.226562 1.222656 -0.40625 1.015625 -0.625 C 0.804688 -0.851562 0.644531 -1.113281 0.53125 -1.40625 C 0.414062 -1.707031 0.359375 -2.023438 0.359375 -2.359375 C 0.359375 -2.796875 0.457031 -3.195312 0.65625 -3.5625 C 0.851562 -3.9375 1.128906 -4.234375 1.484375 -4.453125 C 1.835938 -4.671875 2.242188 -4.78125 2.703125 -4.78125 C 3.160156 -4.78125 3.5625 -4.664062 3.90625 -4.4375 C 4.25 -4.21875 4.519531 -3.925781 4.71875 -3.5625 C 4.914062 -3.195312 5.015625 -2.800781 5.015625 -2.375 C 5.015625 -2.320312 5.015625 -2.269531 5.015625 -2.21875 C 5.015625 -2.175781 5.015625 -2.144531 5.015625 -2.125 L 0.984375 -2.125 C 1.015625 -1.789062 1.109375 -1.492188 1.265625 -1.234375 C 1.429688 -0.972656 1.640625 -0.765625 1.890625 -0.609375 C 2.148438 -0.453125 2.429688 -0.375 2.734375 -0.375 C 3.035156 -0.375 3.320312 -0.453125 3.59375 -0.609375 C 3.875 -0.765625 4.066406 -0.96875 4.171875 -1.21875 L 4.703125 -1.078125 C 4.609375 -0.859375 4.460938 -0.65625 4.265625 -0.46875 C 4.066406 -0.289062 3.832031 -0.148438 3.5625 -0.046875 C 3.300781 0.046875 3.015625 0.09375 2.703125 0.09375 Z M 0.96875 -2.5625 L 4.4375 -2.5625 C 4.414062 -2.90625 4.328125 -3.207031 4.171875 -3.46875 C 4.015625 -3.726562 3.804688 -3.929688 3.546875 -4.078125 C 3.296875 -4.222656 3.015625 -4.296875 2.703125 -4.296875 C 2.398438 -4.296875 2.117188 -4.222656 1.859375 -4.078125 C 1.609375 -3.929688 1.40625 -3.726562 1.25 -3.46875 C 1.09375 -3.207031 1 -2.90625 0.96875 -2.5625 Z M 2.875 -5.59375 L 2.46875 -5.75 L 3 -6.578125 L 3.65625 -6.578125 Z M 2.875 -5.59375 "/></g></g></g><g fill="#545454" fill-opacity="1"><g transform="translate(168.690384, 253.3795)"><g><path d="M 2.078125 0 L 0.171875 -4.703125 L 0.8125 -4.703125 L 2.421875 -0.609375 L 4.03125 -4.703125 L 4.640625 -4.703125 L 2.734375 0 Z M 2.078125 0 "/></g></g></g><g fill="#545454" fill-opacity="1"><g transform="translate(173.495841, 253.3795)"><g><path d="M 2.703125 0.09375 C 2.367188 0.09375 2.054688 0.03125 1.765625 -0.09375 C 1.472656 -0.226562 1.222656 -0.40625 1.015625 -0.625 C 0.804688 -0.851562 0.644531 -1.113281 0.53125 -1.40625 C 0.414062 -1.707031 0.359375 -2.023438 0.359375 -2.359375 C 0.359375 -2.796875 0.457031 -3.195312 0.65625 -3.5625 C 0.851562 -3.9375 1.128906 -4.234375 1.484375 -4.453125 C 1.835938 -4.671875 2.242188 -4.78125 2.703125 -4.78125 C 3.160156 -4.78125 3.5625 -4.664062 3.90625 -4.4375 C 4.25 -4.21875 4.519531 -3.925781 4.71875 -3.5625 C 4.914062 -3.195312 5.015625 -2.800781 5.015625 -2.375 C 5.015625 -2.320312 5.015625 -2.269531 5.015625 -2.21875 C 5.015625 -2.175781 5.015625 -2.144531 5.015625 -2.125 L 0.984375 -2.125 C 1.015625 -1.789062 1.109375 -1.492188 1.265625 -1.234375 C 1.429688 -0.972656 1.640625 -0.765625 1.890625 -0.609375 C 2.148438 -0.453125 2.429688 -0.375 2.734375 -0.375 C 3.035156 -0.375 3.320312 -0.453125 3.59375 -0.609375 C 3.875 -0.765625 4.066406 -0.96875 4.171875 -1.21875 L 4.703125 -1.078125 C 4.609375 -0.859375 4.460938 -0.65625 4.265625 -0.46875 C 4.066406 -0.289062 3.832031 -0.148438 3.5625 -0.046875 C 3.300781 0.046875 3.015625 0.09375 2.703125 0.09375 Z M 0.96875 -2.5625 L 4.4375 -2.5625 C 4.414062 -2.90625 4.328125 -3.207031 4.171875 -3.46875 C 4.015625 -3.726562 3.804688 -3.929688 3.546875 -4.078125 C 3.296875 -4.222656 3.015625 -4.296875 2.703125 -4.296875 C 2.398438 -4.296875 2.117188 -4.222656 1.859375 -4.078125 C 1.609375 -3.929688 1.40625 -3.726562 1.25 -3.46875 C 1.09375 -3.207031 1 -2.90625 0.96875 -2.5625 Z M 0.96875 -2.5625 "/></g></g></g><g fill="#545454" fill-opacity="1"><g transform="translate(178.788158, 253.3795)"><g><path d="M 0.703125 -6.578125 L 1.3125 -6.578125 L 1.3125 -1.0625 C 1.3125 -0.832031 1.351562 -0.679688 1.4375 -0.609375 C 1.519531 -0.535156 1.625 -0.5 1.75 -0.5 C 1.851562 -0.5 1.957031 -0.507812 2.0625 -0.53125 C 2.175781 -0.550781 2.273438 -0.578125 2.359375 -0.609375 L 2.46875 -0.109375 C 2.351562 -0.0546875 2.210938 -0.0195312 2.046875 0 C 1.878906 0.03125 1.734375 0.046875 1.609375 0.046875 C 1.335938 0.046875 1.117188 -0.03125 0.953125 -0.1875 C 0.785156 -0.351562 0.703125 -0.578125 0.703125 -0.859375 Z M 0.703125 -6.578125 "/></g></g></g><g fill="#545454" fill-opacity="1"><g transform="translate(181.240476, 253.3795)"><g><path d="M 2.671875 0.09375 C 2.335938 0.09375 2.023438 0.03125 1.734375 -0.09375 C 1.453125 -0.226562 1.207031 -0.40625 1 -0.625 C 0.789062 -0.851562 0.628906 -1.113281 0.515625 -1.40625 C 0.410156 -1.695312 0.359375 -2.003906 0.359375 -2.328125 C 0.359375 -2.671875 0.410156 -2.988281 0.515625 -3.28125 C 0.628906 -3.570312 0.789062 -3.828125 1 -4.046875 C 1.21875 -4.273438 1.46875 -4.453125 1.75 -4.578125 C 2.039062 -4.710938 2.351562 -4.78125 2.6875 -4.78125 C 3.019531 -4.78125 3.328125 -4.710938 3.609375 -4.578125 C 3.890625 -4.453125 4.132812 -4.273438 4.34375 -4.046875 C 4.5625 -3.828125 4.726562 -3.570312 4.84375 -3.28125 C 4.957031 -2.988281 5.015625 -2.671875 5.015625 -2.328125 C 5.015625 -2.003906 4.957031 -1.695312 4.84375 -1.40625 C 4.726562 -1.113281 4.566406 -0.851562 4.359375 -0.625 C 4.148438 -0.40625 3.898438 -0.226562 3.609375 -0.09375 C 3.328125 0.03125 3.015625 0.09375 2.671875 0.09375 Z M 0.96875 -2.328125 C 0.96875 -1.972656 1.046875 -1.65625 1.203125 -1.375 C 1.359375 -1.09375 1.5625 -0.867188 1.8125 -0.703125 C 2.070312 -0.535156 2.359375 -0.453125 2.671875 -0.453125 C 2.984375 -0.453125 3.269531 -0.535156 3.53125 -0.703125 C 3.789062 -0.867188 4 -1.097656 4.15625 -1.390625 C 4.3125 -1.679688 4.390625 -2 4.390625 -2.34375 C 4.390625 -2.6875 4.3125 -3.003906 4.15625 -3.296875 C 4 -3.585938 3.789062 -3.816406 3.53125 -3.984375 C 3.269531 -4.148438 2.984375 -4.234375 2.671875 -4.234375 C 2.359375 -4.234375 2.070312 -4.144531 1.8125 -3.96875 C 1.5625 -3.800781 1.359375 -3.570312 1.203125 -3.28125 C 1.046875 -3 0.96875 -2.679688 0.96875 -2.328125 Z M 0.96875 -2.328125 "/></g></g></g><g fill="#545454" fill-opacity="1"><g transform="translate(186.604909, 253.3795)"><g><path d="M 3.078125 0.09375 C 2.679688 0.09375 2.328125 -0.00390625 2.015625 -0.203125 C 1.710938 -0.410156 1.472656 -0.664062 1.296875 -0.96875 L 1.296875 1.921875 L 0.671875 1.921875 L 0.671875 -4.703125 L 1.21875 -4.703125 L 1.21875 -3.78125 C 1.40625 -4.082031 1.65625 -4.320312 1.96875 -4.5 C 2.28125 -4.6875 2.613281 -4.78125 2.96875 -4.78125 C 3.300781 -4.78125 3.597656 -4.710938 3.859375 -4.578125 C 4.128906 -4.441406 4.363281 -4.257812 4.5625 -4.03125 C 4.769531 -3.800781 4.925781 -3.539062 5.03125 -3.25 C 5.144531 -2.957031 5.203125 -2.65625 5.203125 -2.34375 C 5.203125 -1.90625 5.113281 -1.5 4.9375 -1.125 C 4.757812 -0.757812 4.507812 -0.460938 4.1875 -0.234375 C 3.875 -0.015625 3.503906 0.09375 3.078125 0.09375 Z M 2.90625 -0.453125 C 3.164062 -0.453125 3.394531 -0.503906 3.59375 -0.609375 C 3.800781 -0.710938 3.976562 -0.851562 4.125 -1.03125 C 4.269531 -1.21875 4.378906 -1.421875 4.453125 -1.640625 C 4.535156 -1.867188 4.578125 -2.101562 4.578125 -2.34375 C 4.578125 -2.59375 4.53125 -2.832031 4.4375 -3.0625 C 4.351562 -3.289062 4.226562 -3.492188 4.0625 -3.671875 C 3.90625 -3.847656 3.722656 -3.984375 3.515625 -4.078125 C 3.304688 -4.179688 3.078125 -4.234375 2.828125 -4.234375 C 2.671875 -4.234375 2.507812 -4.203125 2.34375 -4.140625 C 2.175781 -4.085938 2.015625 -4.003906 1.859375 -3.890625 C 1.703125 -3.773438 1.570312 -3.648438 1.46875 -3.515625 C 1.375 -3.378906 1.316406 -3.234375 1.296875 -3.078125 L 1.296875 -1.625 C 1.390625 -1.40625 1.515625 -1.207031 1.671875 -1.03125 C 1.835938 -0.851562 2.023438 -0.710938 2.234375 -0.609375 C 2.453125 -0.503906 2.675781 -0.453125 2.90625 -0.453125 Z M 2.90625 -0.453125 "/></g></g></g><g fill="#545454" fill-opacity="1"><g transform="translate(192.167701, 253.3795)"><g><path d="M 3.078125 0.09375 C 2.679688 0.09375 2.328125 -0.00390625 2.015625 -0.203125 C 1.710938 -0.410156 1.472656 -0.664062 1.296875 -0.96875 L 1.296875 1.921875 L 0.671875 1.921875 L 0.671875 -4.703125 L 1.21875 -4.703125 L 1.21875 -3.78125 C 1.40625 -4.082031 1.65625 -4.320312 1.96875 -4.5 C 2.28125 -4.6875 2.613281 -4.78125 2.96875 -4.78125 C 3.300781 -4.78125 3.597656 -4.710938 3.859375 -4.578125 C 4.128906 -4.441406 4.363281 -4.257812 4.5625 -4.03125 C 4.769531 -3.800781 4.925781 -3.539062 5.03125 -3.25 C 5.144531 -2.957031 5.203125 -2.65625 5.203125 -2.34375 C 5.203125 -1.90625 5.113281 -1.5 4.9375 -1.125 C 4.757812 -0.757812 4.507812 -0.460938 4.1875 -0.234375 C 3.875 -0.015625 3.503906 0.09375 3.078125 0.09375 Z M 2.90625 -0.453125 C 3.164062 -0.453125 3.394531 -0.503906 3.59375 -0.609375 C 3.800781 -0.710938 3.976562 -0.851562 4.125 -1.03125 C 4.269531 -1.21875 4.378906 -1.421875 4.453125 -1.640625 C 4.535156 -1.867188 4.578125 -2.101562 4.578125 -2.34375 C 4.578125 -2.59375 4.53125 -2.832031 4.4375 -3.0625 C 4.351562 -3.289062 4.226562 -3.492188 4.0625 -3.671875 C 3.90625 -3.847656 3.722656 -3.984375 3.515625 -4.078125 C 3.304688 -4.179688 3.078125 -4.234375 2.828125 -4.234375 C 2.671875 -4.234375 2.507812 -4.203125 2.34375 -4.140625 C 2.175781 -4.085938 2.015625 -4.003906 1.859375 -3.890625 C 1.703125 -3.773438 1.570312 -3.648438 1.46875 -3.515625 C 1.375 -3.378906 1.316406 -3.234375 1.296875 -3.078125 L 1.296875 -1.625 C 1.390625 -1.40625 1.515625 -1.207031 1.671875 -1.03125 C 1.835938 -0.851562 2.023438 -0.710938 2.234375 -0.609375 C 2.453125 -0.503906 2.675781 -0.453125 2.90625 -0.453125 Z M 2.90625 -0.453125 "/></g></g></g><g fill="#545454" fill-opacity="1"><g transform="translate(197.730494, 253.3795)"><g><path d="M 2.703125 0.09375 C 2.367188 0.09375 2.054688 0.03125 1.765625 -0.09375 C 1.472656 -0.226562 1.222656 -0.40625 1.015625 -0.625 C 0.804688 -0.851562 0.644531 -1.113281 0.53125 -1.40625 C 0.414062 -1.707031 0.359375 -2.023438 0.359375 -2.359375 C 0.359375 -2.796875 0.457031 -3.195312 0.65625 -3.5625 C 0.851562 -3.9375 1.128906 -4.234375 1.484375 -4.453125 C 1.835938 -4.671875 2.242188 -4.78125 2.703125 -4.78125 C 3.160156 -4.78125 3.5625 -4.664062 3.90625 -4.4375 C 4.25 -4.21875 4.519531 -3.925781 4.71875 -3.5625 C 4.914062 -3.195312 5.015625 -2.800781 5.015625 -2.375 C 5.015625 -2.320312 5.015625 -2.269531 5.015625 -2.21875 C 5.015625 -2.175781 5.015625 -2.144531 5.015625 -2.125 L 0.984375 -2.125 C 1.015625 -1.789062 1.109375 -1.492188 1.265625 -1.234375 C 1.429688 -0.972656 1.640625 -0.765625 1.890625 -0.609375 C 2.148438 -0.453125 2.429688 -0.375 2.734375 -0.375 C 3.035156 -0.375 3.320312 -0.453125 3.59375 -0.609375 C 3.875 -0.765625 4.066406 -0.96875 4.171875 -1.21875 L 4.703125 -1.078125 C 4.609375 -0.859375 4.460938 -0.65625 4.265625 -0.46875 C 4.066406 -0.289062 3.832031 -0.148438 3.5625 -0.046875 C 3.300781 0.046875 3.015625 0.09375 2.703125 0.09375 Z M 0.96875 -2.5625 L 4.4375 -2.5625 C 4.414062 -2.90625 4.328125 -3.207031 4.171875 -3.46875 C 4.015625 -3.726562 3.804688 -3.929688 3.546875 -4.078125 C 3.296875 -4.222656 3.015625 -4.296875 2.703125 -4.296875 C 2.398438 -4.296875 2.117188 -4.222656 1.859375 -4.078125 C 1.609375 -3.929688 1.40625 -3.726562 1.25 -3.46875 C 1.09375 -3.207031 1 -2.90625 0.96875 -2.5625 Z M 0.96875 -2.5625 "/></g></g></g><g fill="#545454" fill-opacity="1"><g transform="translate(203.022811, 253.3795)"><g><path d="M 0.625 -1.9375 L 0.625 -4.703125 L 1.25 -4.703125 L 1.25 -2.046875 C 1.25 -1.515625 1.335938 -1.113281 1.515625 -0.84375 C 1.703125 -0.582031 1.972656 -0.453125 2.328125 -0.453125 C 2.578125 -0.453125 2.8125 -0.503906 3.03125 -0.609375 C 3.257812 -0.710938 3.457031 -0.863281 3.625 -1.0625 C 3.800781 -1.257812 3.9375 -1.484375 4.03125 -1.734375 L 4.03125 -4.703125 L 4.640625 -4.703125 L 4.640625 -0.734375 C 4.640625 -0.648438 4.65625 -0.585938 4.6875 -0.546875 C 4.726562 -0.515625 4.785156 -0.492188 4.859375 -0.484375 L 4.859375 0 C 4.785156 0.0078125 4.726562 0.015625 4.6875 0.015625 C 4.644531 0.015625 4.609375 0.015625 4.578125 0.015625 C 4.453125 0.00390625 4.34375 -0.0390625 4.25 -0.125 C 4.164062 -0.207031 4.125 -0.3125 4.125 -0.4375 L 4.109375 -1.0625 C 3.898438 -0.695312 3.617188 -0.410156 3.265625 -0.203125 C 2.910156 -0.00390625 2.53125 0.09375 2.125 0.09375 C 1.632812 0.09375 1.257812 -0.078125 1 -0.421875 C 0.75 -0.765625 0.625 -1.269531 0.625 -1.9375 Z M 0.625 -1.9375 "/></g></g></g><g fill="#545454" fill-opacity="1"><g transform="translate(208.378231, 253.3795)"><g><path d="M 2.21875 0.09375 C 1.832031 0.09375 1.472656 0.03125 1.140625 -0.09375 C 0.816406 -0.21875 0.53125 -0.410156 0.28125 -0.671875 L 0.546875 -1.109375 C 0.804688 -0.859375 1.066406 -0.675781 1.328125 -0.5625 C 1.597656 -0.457031 1.882812 -0.40625 2.1875 -0.40625 C 2.550781 -0.40625 2.847656 -0.476562 3.078125 -0.625 C 3.304688 -0.769531 3.421875 -0.984375 3.421875 -1.265625 C 3.421875 -1.453125 3.363281 -1.59375 3.25 -1.6875 C 3.144531 -1.789062 2.988281 -1.875 2.78125 -1.9375 C 2.570312 -2 2.320312 -2.066406 2.03125 -2.140625 C 1.707031 -2.222656 1.4375 -2.3125 1.21875 -2.40625 C 1 -2.507812 0.832031 -2.640625 0.71875 -2.796875 C 0.613281 -2.953125 0.5625 -3.15625 0.5625 -3.40625 C 0.5625 -3.707031 0.632812 -3.957031 0.78125 -4.15625 C 0.9375 -4.363281 1.148438 -4.519531 1.421875 -4.625 C 1.691406 -4.726562 1.988281 -4.78125 2.3125 -4.78125 C 2.675781 -4.78125 2.992188 -4.722656 3.265625 -4.609375 C 3.546875 -4.492188 3.773438 -4.332031 3.953125 -4.125 L 3.65625 -3.71875 C 3.488281 -3.90625 3.285156 -4.046875 3.046875 -4.140625 C 2.816406 -4.234375 2.5625 -4.28125 2.28125 -4.28125 C 2.09375 -4.28125 1.910156 -4.253906 1.734375 -4.203125 C 1.554688 -4.148438 1.410156 -4.066406 1.296875 -3.953125 C 1.191406 -3.835938 1.140625 -3.675781 1.140625 -3.46875 C 1.140625 -3.300781 1.179688 -3.171875 1.265625 -3.078125 C 1.347656 -2.984375 1.472656 -2.90625 1.640625 -2.84375 C 1.804688 -2.78125 2.015625 -2.710938 2.265625 -2.640625 C 2.617188 -2.546875 2.925781 -2.445312 3.1875 -2.34375 C 3.457031 -2.25 3.660156 -2.125 3.796875 -1.96875 C 3.941406 -1.8125 4.015625 -1.59375 4.015625 -1.3125 C 4.015625 -0.875 3.847656 -0.53125 3.515625 -0.28125 C 3.191406 -0.03125 2.757812 0.09375 2.21875 0.09375 Z M 2.21875 0.09375 "/></g></g></g><g fill="#545454" fill-opacity="1"><g transform="translate(212.732891, 253.3795)"><g><path d="M 2.703125 0.09375 C 2.367188 0.09375 2.054688 0.03125 1.765625 -0.09375 C 1.472656 -0.226562 1.222656 -0.40625 1.015625 -0.625 C 0.804688 -0.851562 0.644531 -1.113281 0.53125 -1.40625 C 0.414062 -1.707031 0.359375 -2.023438 0.359375 -2.359375 C 0.359375 -2.796875 0.457031 -3.195312 0.65625 -3.5625 C 0.851562 -3.9375 1.128906 -4.234375 1.484375 -4.453125 C 1.835938 -4.671875 2.242188 -4.78125 2.703125 -4.78125 C 3.160156 -4.78125 3.5625 -4.664062 3.90625 -4.4375 C 4.25 -4.21875 4.519531 -3.925781 4.71875 -3.5625 C 4.914062 -3.195312 5.015625 -2.800781 5.015625 -2.375 C 5.015625 -2.320312 5.015625 -2.269531 5.015625 -2.21875 C 5.015625 -2.175781 5.015625 -2.144531 5.015625 -2.125 L 0.984375 -2.125 C 1.015625 -1.789062 1.109375 -1.492188 1.265625 -1.234375 C 1.429688 -0.972656 1.640625 -0.765625 1.890625 -0.609375 C 2.148438 -0.453125 2.429688 -0.375 2.734375 -0.375 C 3.035156 -0.375 3.320312 -0.453125 3.59375 -0.609375 C 3.875 -0.765625 4.066406 -0.96875 4.171875 -1.21875 L 4.703125 -1.078125 C 4.609375 -0.859375 4.460938 -0.65625 4.265625 -0.46875 C 4.066406 -0.289062 3.832031 -0.148438 3.5625 -0.046875 C 3.300781 0.046875 3.015625 0.09375 2.703125 0.09375 Z M 0.96875 -2.5625 L 4.4375 -2.5625 C 4.414062 -2.90625 4.328125 -3.207031 4.171875 -3.46875 C 4.015625 -3.726562 3.804688 -3.929688 3.546875 -4.078125 C 3.296875 -4.222656 3.015625 -4.296875 2.703125 -4.296875 C 2.398438 -4.296875 2.117188 -4.222656 1.859375 -4.078125 C 1.609375 -3.929688 1.40625 -3.726562 1.25 -3.46875 C 1.09375 -3.207031 1 -2.90625 0.96875 -2.5625 Z M 0.96875 -2.5625 "/></g></g></g></svg>