<svg xmlns="http://www.w3.org/2000/svg" xmlns:xlink="http://www.w3.org/1999/xlink" width="500" zoomAndPan="magnify" viewBox="0 0 375 374.999991" height="500" preserveAspectRatio="xMidYMid meet" version="1.0"><defs><g/><clipPath id="917d3367cf"><path d="M 172.4375 221.464844 L 182.804688 221.464844 L 182.804688 231.835938 L 172.4375 231.835938 Z M 172.4375 221.464844 " clip-rule="nonzero"/></clipPath><clipPath id="bee0cdb1f5"><path d="M 177.621094 221.464844 C 174.757812 221.464844 172.4375 223.785156 172.4375 226.648438 C 172.4375 229.515625 174.757812 231.835938 177.621094 231.835938 C 180.484375 231.835938 182.804688 229.515625 182.804688 226.648438 C 182.804688 223.785156 180.484375 221.464844 177.621094 221.464844 Z M 177.621094 221.464844 " clip-rule="nonzero"/></clipPath></defs><g fill="#545454" fill-opacity="1"><g transform="translate(107.625481, 214.98438)"><g><path d="M 38.0625 -73.28125 L 77.515625 -73.28125 L 77.515625 -56.734375 L 42.203125 -56.734375 C 38.460938 -56.734375 35.085938 -55.78125 32.078125 -53.875 C 29.078125 -51.976562 26.71875 -49.515625 25 -46.484375 C 23.289062 -43.453125 22.4375 -40.1875 22.4375 -36.6875 C 22.4375 -32.582031 23.382812 -29.023438 25.28125 -26.015625 C 27.1875 -23.015625 29.734375 -20.6875 32.921875 -19.03125 C 36.109375 -17.375 39.570312 -16.546875 43.3125 -16.546875 L 57.46875 -16.546875 L 57.46875 -51.953125 L 77.515625 -51.953125 L 77.515625 0 L 38.15625 0 C 33.132812 0 28.382812 -0.929688 23.90625 -2.796875 C 19.425781 -4.671875 15.5 -7.273438 12.125 -10.609375 C 8.757812 -13.953125 6.109375 -17.847656 4.171875 -22.296875 C 2.242188 -26.742188 1.28125 -31.539062 1.28125 -36.6875 C 1.28125 -41.957031 2.171875 -46.816406 3.953125 -51.265625 C 5.734375 -55.710938 8.257812 -59.585938 11.53125 -62.890625 C 14.8125 -66.203125 18.707031 -68.757812 23.21875 -70.5625 C 27.726562 -72.375 32.675781 -73.28125 38.0625 -73.28125 Z M 38.0625 -73.28125 "/></g></g></g><g fill="#545454" fill-opacity="1"><g transform="translate(189.824719, 214.98438)"><g><path d="M 22.796875 -56.734375 L 22.796875 0 L 2.765625 0 L 2.765625 -73.28125 L 49.1875 -73.28125 C 53.425781 -73.28125 57.304688 -72.285156 60.828125 -70.296875 C 64.347656 -68.304688 67.148438 -65.609375 69.234375 -62.203125 C 71.316406 -58.804688 72.359375 -55.019531 72.359375 -50.84375 C 72.359375 -47.351562 71.53125 -44.0625 69.875 -40.96875 C 68.226562 -37.875 65.410156 -35.28125 61.421875 -33.1875 C 64.859375 -32.09375 67.664062 -30.363281 69.84375 -28 C 72.019531 -25.632812 73.628906 -22.976562 74.671875 -20.03125 C 75.710938 -17.09375 76.234375 -14.1875 76.234375 -11.3125 C 76.234375 -7.695312 75.375 -4.21875 73.65625 -0.875 C 71.9375 2.46875 69.601562 5.441406 66.65625 8.046875 C 63.71875 10.648438 60.457031 12.71875 56.875 14.25 C 53.289062 15.78125 49.597656 16.546875 45.796875 16.546875 L 22.796875 16.546875 L 22.796875 0 L 42.671875 0 C 46.097656 0 49.019531 -0.992188 51.4375 -2.984375 C 53.863281 -4.984375 55.078125 -7.851562 55.078125 -11.59375 C 55.078125 -13.914062 54.523438 -15.976562 53.421875 -17.78125 C 52.316406 -19.59375 50.828125 -21.019531 48.953125 -22.0625 C 47.085938 -23.101562 45.050781 -23.625 42.84375 -23.625 L 27.21875 -23.625 L 27.21875 -40.1875 L 42.9375 -40.1875 C 45.570312 -40.1875 47.59375 -40.953125 49 -42.484375 C 50.414062 -44.015625 51.125 -46.035156 51.125 -48.546875 C 51.125 -50.816406 50.539062 -52.75 49.375 -54.34375 C 48.207031 -55.9375 46.09375 -56.734375 43.03125 -56.734375 Z M 22.796875 -56.734375 "/></g></g></g><g clip-path="url(#917d3367cf)"><g clip-path="url(#bee0cdb1f5)"><path fill="#0097b2" d="M 172.4375 221.464844 L 182.804688 221.464844 L 182.804688 231.835938 L 172.4375 231.835938 Z M 172.4375 221.464844 " fill-opacity="1" fill-rule="nonzero"/></g></g></svg>