<svg xmlns="http://www.w3.org/2000/svg" xmlns:xlink="http://www.w3.org/1999/xlink" width="60" zoomAndPan="magnify" viewBox="0 0 45 44.999999" height="60" preserveAspectRatio="xMidYMid meet" version="1.0"><defs><g/><clipPath id="08c19888a7"><path d="M 25.125 31.574219 L 28.125 31.574219 L 28.125 34.574219 L 25.125 34.574219 Z M 25.125 31.574219 " clip-rule="nonzero"/></clipPath><clipPath id="07ac9d4bb8"><path d="M 26.625 31.574219 C 25.796875 31.574219 25.125 32.246094 25.125 33.074219 C 25.125 33.902344 25.796875 34.574219 26.625 34.574219 C 27.453125 34.574219 28.125 33.902344 28.125 33.074219 C 28.125 32.246094 27.453125 31.574219 26.625 31.574219 Z M 26.625 31.574219 " clip-rule="nonzero"/></clipPath></defs><g fill="#545454" fill-opacity="1"><g transform="translate(-0.112501, 29.296103)"><g><path d="M 10.90625 -21.015625 L 22.21875 -21.015625 L 22.21875 -16.265625 L 12.09375 -16.265625 C 11.019531 -16.265625 10.050781 -15.988281 9.1875 -15.4375 C 8.332031 -14.894531 7.660156 -14.1875 7.171875 -13.3125 C 6.679688 -12.445312 6.4375 -11.515625 6.4375 -10.515625 C 6.4375 -9.335938 6.707031 -8.316406 7.25 -7.453125 C 7.789062 -6.597656 8.519531 -5.929688 9.4375 -5.453125 C 10.351562 -4.984375 11.347656 -4.75 12.421875 -4.75 L 16.46875 -4.75 L 16.46875 -14.890625 L 22.21875 -14.890625 L 22.21875 0 L 10.9375 0 C 9.5 0 8.132812 -0.265625 6.84375 -0.796875 C 5.5625 -1.335938 4.4375 -2.085938 3.46875 -3.046875 C 2.507812 -4.003906 1.753906 -5.117188 1.203125 -6.390625 C 0.648438 -7.660156 0.375 -9.035156 0.375 -10.515625 C 0.375 -12.023438 0.625 -13.414062 1.125 -14.6875 C 1.632812 -15.96875 2.359375 -17.082031 3.296875 -18.03125 C 4.242188 -18.976562 5.363281 -19.710938 6.65625 -20.234375 C 7.945312 -20.753906 9.363281 -21.015625 10.90625 -21.015625 Z M 10.90625 -21.015625 "/></g></g></g><g fill="#545454" fill-opacity="1"><g transform="translate(22.894814, 29.296103)"><g><path d="M 6.53125 -16.265625 L 6.53125 0 L 0.796875 0 L 0.796875 -21.015625 L 14.109375 -21.015625 C 15.316406 -21.015625 16.425781 -20.726562 17.4375 -20.15625 C 18.445312 -19.582031 19.25 -18.804688 19.84375 -17.828125 C 20.445312 -16.859375 20.75 -15.773438 20.75 -14.578125 C 20.75 -13.578125 20.507812 -12.628906 20.03125 -11.734375 C 19.5625 -10.847656 18.753906 -10.109375 17.609375 -9.515625 C 18.585938 -9.203125 19.390625 -8.707031 20.015625 -8.03125 C 20.640625 -7.351562 21.101562 -6.59375 21.40625 -5.75 C 21.707031 -4.90625 21.859375 -4.070312 21.859375 -3.25 C 21.859375 -2.207031 21.609375 -1.207031 21.109375 -0.25 C 20.617188 0.707031 19.953125 1.554688 19.109375 2.296875 C 18.265625 3.046875 17.328125 3.640625 16.296875 4.078125 C 15.273438 4.523438 14.21875 4.75 13.125 4.75 L 6.53125 4.75 L 6.53125 0 L 12.234375 0 C 13.210938 0 14.050781 -0.285156 14.75 -0.859375 C 15.445312 -1.429688 15.796875 -2.253906 15.796875 -3.328125 C 15.796875 -3.992188 15.632812 -4.582031 15.3125 -5.09375 C 15 -5.613281 14.570312 -6.023438 14.03125 -6.328125 C 13.5 -6.628906 12.914062 -6.78125 12.28125 -6.78125 L 7.796875 -6.78125 L 7.796875 -11.515625 L 12.3125 -11.515625 C 13.0625 -11.515625 13.640625 -11.734375 14.046875 -12.171875 C 14.453125 -12.617188 14.65625 -13.203125 14.65625 -13.921875 C 14.65625 -14.566406 14.488281 -15.117188 14.15625 -15.578125 C 13.820312 -16.035156 13.21875 -16.265625 12.34375 -16.265625 Z M 6.53125 -16.265625 "/></g></g></g><g clip-path="url(#08c19888a7)"><g clip-path="url(#07ac9d4bb8)"><path fill="#0097b2" d="M 25.125 31.574219 L 28.125 31.574219 L 28.125 34.574219 L 25.125 34.574219 Z M 25.125 31.574219 " fill-opacity="1" fill-rule="nonzero"/></g></g></svg>